<?xml version="1.0" encoding="UTF-8"?>
<svg id="fi_5685447" enable-background="new 0 0 512.03 512.03" height="512" viewBox="0 0 512.03 512.03" width="512" xmlns="http://www.w3.org/2000/svg"><g><g><g clip-rule="evenodd" fill-rule="evenodd"><path d="m222.021 97.53c0 25.682-10.761 48.846-28.016 65.242 16.14 15.342 37.969 24.758 61.996 24.758 2.081 0 4.147-.07 6.193-.21 21.574-1.466 41.06-10.535 55.802-24.549-17.255-16.396-28.015-39.559-28.015-65.241s10.761-48.846 28.016-65.242c-16.142-15.343-37.97-24.758-61.997-24.758s-45.855 9.415-61.995 24.759c17.255 16.395 28.016 39.559 28.016 65.241z" fill="#fff"></path><path d="m289.979 97.53c0 25.682 10.761 48.846 28.016 65.242 16.124-15.327 26.573-36.568 27.868-60.247.09-1.654.136-3.319.136-4.996 0-25.679-10.754-48.845-28.004-65.242-17.255 16.397-28.016 39.561-28.016 65.243zm-95.975 65.242c17.256-16.397 28.016-39.561 28.016-65.242 0-25.682-10.761-48.846-28.016-65.242-17.25 16.396-28.004 39.563-28.004 65.242s10.754 48.845 28.004 65.242z" fill="#bababe"></path><path d="m317.996 162.772c-14.742 14.013-34.229 23.082-55.802 24.548l-122.05 152.744 31.821 31.822 158.339-126.52 161.071-161.07c17.499-17.499 17.501-46.139 0-63.64-8.73-8.73-20.231-13.105-31.739-13.126h-.161c-11.508.021-23.009 4.396-31.74 13.126l-81.87 81.87c-1.297 23.679-11.745 44.92-27.869 60.246z" fill="#ffc277"></path><path d="m317.996 162.772c-14.742 14.013-34.229 23.082-55.802 24.548l-17.683 22.13c72.863 7.391 133.332-56.378 122.79-128.361l-21.436 21.437c-1.297 23.679-11.745 44.92-27.869 60.246z" fill="#ff905b"></path><path d="m26.826 387.004h151.399v44.999h-151.399z" fill="#bababe" transform="matrix(.707 -.707 .707 .707 -259.533 192.438)"></path><path d="m64.907 478.94-31.817-31.818c-5.833-5.834-15.38-5.834-21.214 0s-5.834 15.38 0 21.214l31.819 31.819c5.834 5.833 15.38 5.834 21.214 0s5.831-15.381-.002-21.215z" fill="#ffc277"></path><path d="m194.004 162.772c19.632 18.661 46.433 27.408 73.238 24.058-25.521-3.185-47.721-17.055-61.985-36.991-3.337 4.662-7.107 8.994-11.253 12.933zm73.239-154.543c-26.807-3.347-53.605 5.393-73.238 24.059 4.146 3.939 7.915 8.27 11.252 12.932 14.264-19.936 36.465-33.806 61.986-36.991z" fill="#9ce4f8"></path><path d="m194.004 162.772c4.146-3.94 7.916-8.271 11.253-12.933-10.547-14.742-16.757-32.8-16.757-52.309s6.21-37.567 16.757-52.309c-3.337-4.662-7.107-8.993-11.253-12.933-17.962 17.073-28.004 40.535-28.004 65.242 0 24.77 10.09 48.215 28.004 65.242z" fill="#7a797f"></path><path d="m64.907 478.94-15.91-15.91c5.833 5.834 5.836 15.38.002 21.214-5.831 5.831-15.371 5.833-21.206.008l15.902 15.902c5.833 5.833 15.38 5.833 21.214 0 5.834-5.834 5.831-15.38-.002-21.214z" fill="#ff905b"></path><path d="m34.781 406.208h151.399v22.5h-151.399z" fill="#7a797f" transform="matrix(.707 -.707 .707 .707 -262.828 200.392)"></path></g><g><path d="m422.43 78.992-10.606-10.607 10.607-10.606 10.606 10.607zm21.213-21.213-10.606-10.607 10.607-10.606 10.606 10.607z" fill="#fff"></path></g></g><g><path d="m496.676 15.351c-20.469-20.468-53.775-20.469-74.246 0l-69.723 69.724c-6.134-47.902-47.164-85.045-96.707-85.045-53.762 0-97.5 43.738-97.5 97.5 0 50.653 38.828 92.402 88.283 97.061l-112.238 140.466-102.384 102.383c-2.984-1.421-6.266-2.195-9.677-2.195-6.022 0-11.672 2.335-15.91 6.572-4.239 4.237-6.573 9.888-6.573 15.91s2.334 11.673 6.572 15.91l31.818 31.818c4.238 4.238 9.889 6.573 15.911 6.573s11.672-2.335 15.91-6.572c6.91-6.91 8.352-17.228 4.373-25.589l102.386-102.385 61.266-48.954-9.363-11.719-56.35 45.027-22.332-22.333 115.853-144.99c46.329-4.763 83.14-42.1 87.097-88.659l79.896-79.897c14.622-14.622 38.412-14.619 53.033-.001 14.622 14.622 14.622 38.413 0 53.034l-160.777 160.777-61.265 48.953 9.363 11.719 61.917-49.475 161.367-161.365c20.47-20.469 20.47-53.777 0-74.248zm-323.176 82.179c0-20.823 7.771-39.856 20.545-54.389 11.579 13.19 18.675 29.722 20.173 47.283l14.946-1.273c-1.788-20.964-10.326-40.675-24.241-56.335 14.06-11.121 31.8-17.786 51.078-17.786 19.272 0 37.008 6.661 51.066 17.777-15.91 17.839-24.587 40.522-24.587 64.723s8.677 46.885 24.587 64.723c-14.06 11.116-31.795 17.777-51.067 17.777-19.278 0-37.017-6.664-51.078-17.786 13.915-15.66 22.454-35.372 24.241-56.335l-14.946-1.273c-1.497 17.561-8.593 34.093-20.173 47.283-12.773-14.533-20.544-33.566-20.544-54.389zm-33.356 253.141 21.213 21.214-16.157 16.157-21.213-21.213zm-96.449 96.449 16.157-16.156 21.213 21.213-16.157 16.157zm26.763-26.763 16.158-16.157 21.213 21.213-16.157 16.157zm26.765-26.764 16.157-16.157 21.213 21.213-16.157 16.157zm-37.617 101.258c-1.405 1.404-3.288 2.178-5.303 2.178s-3.898-.773-5.304-2.179l-31.819-31.819c-1.405-1.404-2.178-3.288-2.178-5.303s.773-3.898 2.179-5.304c1.405-1.404 3.288-2.178 5.303-2.178s3.898.773 5.303 2.178l31.817 31.818c2.924 2.927 2.925 7.685.002 10.609zm258.356-342.94c-13.25-15.037-20.482-34.075-20.482-54.381s7.232-39.344 20.482-54.381c12.769 14.532 20.538 33.561 20.538 54.381s-7.769 39.849-20.538 54.381z"></path><path d="m243.633 301.126h15v15h-15z" transform="matrix(.781 -.624 .624 .781 -137.714 224.274)"></path><path d="m448.563 193.194c15.772 48.602 12.679 101.062-8.711 147.716-19.48 42.492-52.25 76.167-93.49 96.588 20.134-15.927 37.205-35.764 50.215-58.733 25.653-45.291 32.907-97.997 20.426-148.409l-14.561 3.605c11.555 46.672 4.836 95.472-18.918 137.411-23.757 41.945-62.127 72.615-108.074 86.415-35.343 3.409-71.143-2.587-104.313-17.897l-6.286 13.619c29.166 13.462 60.222 20.229 91.357 20.229 25.45-.001 50.955-4.522 75.514-13.606 54.337-20.097 97.581-60.217 121.766-112.969 22.962-50.084 26.28-106.408 9.343-158.599z"></path></g></g></svg>